<svg width="43" height="43" viewBox="0 0 43 43" fill="none" xmlns="http://www.w3.org/2000/svg">
<path d="M30.8197 20.1159L17.5322 10.7039C17.1631 10.3348 16.4249 10.1502 15.8712 10.5193C15.3176 10.7039 15.133 11.2575 15.133 11.9957V31.1888C15.133 31.7425 15.5021 32.2961 16.0558 32.6652C16.2403 32.8498 16.6094 32.8498 16.794 32.8498C17.1631 32.8498 17.5322 32.6652 17.7167 32.4807L31.0043 22.8841C31.3734 22.515 31.7425 22.1459 31.7425 21.5923C31.3734 21.0386 31.1888 20.485 30.8197 20.1159Z" fill="white"/>
<path d="M36.7253 6.27468C32.6652 2.21459 27.3133 0 21.4077 0C9.59657 0 0 9.59657 0 21.5923C0 33.4034 9.59657 43 21.4077 43C33.2189 43 43 33.4034 43 21.5923C43 15.6867 40.7854 10.3348 36.7253 6.27468ZM21.4077 40.6009C10.8884 40.6009 2.39914 32.1116 2.39914 21.5923C2.39914 11.073 11.073 2.39914 21.5923 2.39914C32.1116 2.39914 40.6009 10.8884 40.6009 21.5923C40.6009 32.1116 32.1116 40.6009 21.4077 40.6009Z" fill="white"/>
</svg>
