<svg id="Слой_1" data-name="Слой 1" xmlns="http://www.w3.org/2000/svg" width="1561.85" height="958.86" viewBox="0 0 1561.85 958.86">
  <defs>
    <style>
      .cls-1 {
        fill: #fff;
      }

      .cls-2 {
        fill: none;
        stroke: #ea6a6a;
        stroke-miterlimit: 10;
        stroke-width: 5.93px;
      }
    </style>
  </defs>
  <g>
    <g>
      <path class="cls-1" d="M1558.06,777.43q-.58-137.53-1.19-275-.48-136.24-.59-272.53,0-55.92.33-111.83c.18-29.06,8.21-68.18-12.84-92.44-21.53-24.79-56.11-21-86.89-21.32q-42.8-.45-85.56-.62Q1260.56,3.06,1149.83,3,878.89,2.71,608,3.82c-153.67.47-307.34.83-461,2.37q-35.72.36-71.5.77a4.87,4.87,0,0,0-2.46,1c-19.48,1.21-36.15,8.6-48.9,22.51C10,45.87,7,62.89,6.32,82.46,4.77,128.1,4.15,173.74,3.71,219.38Q2.24,369.25,3.47,519.05q.88,134.16,3.47,268.26c.68,34,1.48,68,2.61,102,.62,19,3.62,36.54,19.42,50.27,15.16,13.14,33.45,15.39,53.38,15,144.48-2.66,289-2,433.56-1.86q35.69,0,71.35.11c-.35.78,6.44.63,7.12.69,60.29,4.42,359.45,1.57,379.26.41q47.64.14,95.29.3c137.6.44,275.23,1.3,412.86.09,40.21-.36,75.44-27.76,76.63-65.95C1559.57,851.45,1558.21,814.35,1558.06,777.43ZM676,921.26c-18.38-.21-36.74-.15-55.1-.15-12.93,0-30.69,2.23-43-2.67-9.69-3.82-1.66-15.59,5-17.58,13.4-4,30.48-2.31,44.36-2.4,18.39-.15,36.8-.33,55.19-.24C697.52,898.28,688.77,921.38,676,921.26Zm154.24,0c-18.36-.21-36.71-.15-55.1-.15-12.9,0-30.66,2.23-43-2.67-9.67-3.82-1.66-15.59,5-17.58,13.44-4,30.52-2.31,44.37-2.4,18.41-.15,36.8-.33,55.22-.24C851.79,898.28,843,921.38,830.23,921.26Zm156.7,0c-18.36-.21-36.71-.15-55.07-.15-12.93,0-30.69,2.23-43-2.67-9.67-3.82-1.66-15.59,5-17.58,13.4-4,30.49-2.31,44.34-2.4,18.41-.15,36.8-.33,55.21-.24C1008.49,898.28,999.74,921.38,986.93,921.26Zm540.23-282.73q-.27,56.76-1.1,113.49-.35,23.22-.89,46.5c-.35,14.38,1.72,32-2.9,45.73-11.09,32.94-52,25.2-79.9,24.67-25.38-.5-50.76-.77-76.15-1-66.19-.53-132.41-.5-198.6-.32q-120,.25-239.91,1.15s.06-.06.06-.09c-19.25.12-43.95.33-68.51.54l-67.58.56q-59.83.5-119.57,1c-133.63,1.07-292.08,2-427.13,2.13-.06.09-.09.18-.15.27-8.21,0-16.51.06-24.73.06-48-.06-97.06,2.11-145-1.3C47.54,870,31.41,850,31.14,824.32c-.12-9.37.32-41.43.5-53.08q.54-43.86,1.07-87.69c2-172.36,4.6-344.78,2.58-517.16-.33-28.62,2.82-53.5.39-81.91a107.32,107.32,0,0,0,.2-10.91c.77-46.74,54.51-39.45,88.41-39.74q45.86-.4,91.75-.63c31.94-.2,71.85-.41,112.48-.56s81.91-.33,116.64-.47c84.13-.42,206.13-1.49,290.26-1.52a6.72,6.72,0,0,1-.47.78q123.25,0,246.46.62c88.7.47,220.43,1.84,309.13,3.53,0,0,0,.06,0,.09,37.31.74,85.94,1.72,117.55,2.78a3.24,3.24,0,0,0-.06.8c5.82.21,11.66.39,17.5.63,27.79,1.12,70-3.92,88.7,19.48,10.82,13.55,9.22,30.9,9.58,47q.45,21,.77,41.94,1.92,115.11,2.4,230.27Q1527.67,508.55,1527.16,638.53Z"/>
      <path class="cls-1" d="M676,921.26c-18.38-.21-36.74-.15-55.1-.15-12.93,0-30.69,2.23-43-2.67-9.69-3.82-1.66-15.59,5-17.58,13.4-4,30.48-2.31,44.36-2.4,18.39-.15,36.8-.33,55.19-.24C697.52,898.28,688.77,921.38,676,921.26Z"/>
      <path class="cls-1" d="M830.23,921.26c-18.36-.21-36.71-.15-55.1-.15-12.9,0-30.66,2.23-43-2.67-9.67-3.82-1.66-15.59,5-17.58,13.44-4,30.52-2.31,44.37-2.4,18.41-.15,36.8-.33,55.22-.24C851.79,898.28,843,921.38,830.23,921.26Z"/>
      <path class="cls-1" d="M986.93,921.26c-18.36-.21-36.71-.15-55.07-.15-12.93,0-30.69,2.23-43-2.67-9.67-3.82-1.66-15.59,5-17.58,13.4-4,30.49-2.31,44.34-2.4,18.41-.15,36.8-.33,55.21-.24C1008.49,898.28,999.74,921.38,986.93,921.26Z"/>
      <path class="cls-1" d="M676,921.26c-18.38-.21-36.74-.15-55.1-.15-12.93,0-30.69,2.23-43-2.67-9.69-3.82-1.66-15.59,5-17.58,13.4-4,30.48-2.31,44.36-2.4,18.39-.15,36.8-.33,55.19-.24C697.52,898.28,688.77,921.38,676,921.26Z"/>
      <path class="cls-1" d="M830.23,921.26c-18.36-.21-36.71-.15-55.1-.15-12.9,0-30.66,2.23-43-2.67-9.67-3.82-1.66-15.59,5-17.58,13.44-4,30.52-2.31,44.37-2.4,18.41-.15,36.8-.33,55.22-.24C851.79,898.28,843,921.38,830.23,921.26Z"/>
      <path class="cls-1" d="M986.93,921.26c-18.36-.21-36.71-.15-55.07-.15-12.93,0-30.69,2.23-43-2.67-9.67-3.82-1.66-15.59,5-17.58,13.4-4,30.49-2.31,44.34-2.4,18.41-.15,36.8-.33,55.21-.24C1008.49,898.28,999.74,921.38,986.93,921.26Z"/>
    </g>
    <g>
      <path class="cls-2" d="M1558.05,777.43q-.55-137.52-1.16-275-.53-136.26-.61-272.53,0-55.92.33-111.83c.18-29.07,8.21-68.19-12.85-92.44-21.52-24.79-56.09-21-86.9-21.34q-42.77-.42-85.54-.61Q1260.58,3.06,1149.81,3,878.9,2.72,608,3.8c-153.66.5-307.33.86-461,2.4q-35.74.34-71.49.77a4.72,4.72,0,0,0-2.47,1c-19.5,1.2-36.17,8.61-48.92,22.5C10,45.86,7,62.89,6.31,82.46c-1.55,45.63-2.15,91.28-2.6,136.93Q2.24,369.23,3.46,519.06,4.35,653.18,6.94,787.3c.7,34,1.49,68,2.6,102,.62,19,3.62,36.53,19.43,50.25,15.16,13.15,33.47,15.39,53.37,15,144.48-2.66,289.06-2.05,433.56-1.88q35.69,0,71.36.12c-.34.79,6.44.64,7.13.69,60.29,4.42,359.46,1.58,379.24.41l95.29.31c137.6.42,275.25,1.31,412.85.07,40.21-.36,75.47-27.74,76.66-65.94C1559.58,851.46,1558.2,814.34,1558.05,777.43Z"/>
      <path class="cls-2" d="M1526.94,378.56q-.68-115.14-2.38-230.27-.35-21-.78-41.93c-.34-16.1,1.25-33.45-9.58-47C1495.5,36,1453.28,41,1425.49,39.89c-5.83-.24-11.66-.44-17.49-.64a3.16,3.16,0,0,1,.07-.78c-31.61-1.09-80.27-2.07-117.57-2.82l0-.08c-88.72-1.67-220.42-3-309.15-3.52Q858.19,31.33,735,31.44c.15-.27.32-.53.47-.8-84.13.06-206.14,1.1-290.27,1.52h0c-69.44.29-165.24.6-229.1,1q-45.86.24-91.75.62c-33.92.32-87.65-7-88.4,39.75-.06,3,.18,7.33-.23,10.9,2.43,28.42-.69,53.3-.37,81.93,2,172.36-.54,344.78-2.6,517.15l-1.05,87.69c-.18,11.66-.62,43.72-.51,53.07C31.41,850,47.53,870,75.07,871.92c48,3.39,97,1.25,145,1.31,8.22,0,16.5-.06,24.72-.06,0-.09.1-.18.16-.27,135.05-.15,293.5-1.06,427.12-2.13q59.8-.46,119.56-1h0c37.22-.3,97.61-.81,136.1-1.09l-.06.1q119.94-.82,239.88-1.18c66.21-.15,132.42-.18,198.63.34,25.38.2,50.76.48,76.14,1,28,.55,68.81,8.27,79.89-24.65,4.63-13.76,2.56-31.37,2.91-45.74q.55-23.25.9-46.51.89-56.73,1.09-113.47Q1527.83,508.55,1526.94,378.56Z"/>
      <path class="cls-2" d="M682.43,898.21c-18.4-.07-36.8.11-55.2.24-13.86.1-31-1.58-44.36,2.41-6.62,2-14.64,13.75-5,17.59,12.3,4.9,30.05,2.66,43,2.66,18.37,0,36.74-.06,55.1.14C688.78,921.39,697.53,898.28,682.43,898.21Z"/>
      <path class="cls-2" d="M836.69,898.21c-18.4-.07-36.81.11-55.21.24-13.85.1-30.94-1.58-44.36,2.41-6.61,2-14.63,13.75-5,17.59,12.3,4.9,30.05,2.66,43,2.66,18.37,0,36.73-.06,55.1.14C843,921.39,851.79,898.28,836.69,898.21Z"/>
      <path class="cls-2" d="M993.39,898.21c-18.4-.07-36.8.11-55.2.24-13.85.1-30.94-1.58-44.36,2.41-6.62,2-14.64,13.75-5,17.59,12.3,4.9,30.06,2.66,43,2.66,18.37,0,36.74-.06,55.1.14C999.74,921.39,1008.49,898.28,993.39,898.21Z"/>
    </g>
  </g>
</svg>
