<svg width="36" height="36" fill="none" xmlns="http://www.w3.org/2000/svg"><circle cx="18" cy="18" r="18" fill="#fff"/><path d="M15.2445 26.9384c-.1051-.0976-.1859-.2115-.2505-.3336l-.6708-1.31c-.1454-.2766-.4848-.3905-.7595-.2441-.1374.0733-.2344.1872-.2829.3336-.0485.1465-.0323.3011.0323.4313l.6708 1.31c.1212.2441.2909.4637.4848.6509l2.5616 2.4003v2.2538c0 .3174.2505.5696.5657.5696.3151 0 .5656-.2522.5656-.5696v-2.506c0-.1546-.0646-.3092-.1777-.415l-2.7394-2.5712zM13.5313 23.7489l-1.7939-3.515v-.0081c-.1131-.2116-.0647-.472.1212-.6266.1939-.1627.4768-.1546.6626.0163l2.3677 2.2213c.1616.1546.404.1953.6142.1058.2101-.0895.3393-.2929.3393-.5208v-5.2155c0-.3173-.2505-.5696-.5656-.5696-.3152 0-.5657.2523-.5657.5696v3.9055l-1.4141-1.3262c-.598-.5614-1.5273-.5859-2.1576-.057-.5899.4964-.7515 1.3507-.396 2.0342l1.794 3.5068c.097.1872.2909.3092.501.3092.0889 0 .1778-.0244.2586-.0651.2667-.1464.3798-.4882.2343-.7648z" fill="#E35555"/><path d="M24.699 14.774c-.5091 0-.9859.2034-1.3495.5614-.3555-.358-.8404-.5614-1.3495-.5614-.5091 0-.9858.2034-1.3495.5614-.3555-.358-.8404-.5614-1.3495-.5614-.2747 0-.5333.057-.7838.1709V11.975c0-1.0578-.8566-1.9284-1.9152-1.9284-1.0505 0-1.9151.8625-1.9151 1.9284v2.4979c0 .3174.2505.5696.5656.5696.3152 0 .5657-.2522.5657-.5696V11.975c0-.4312.3475-.7892.7838-.7892.4283 0 .7839.3498.7839.7892v7.2172c0 .3173.2505.5695.5656.5695.3152 0 .5657-.2522.5657-.5695v-2.498c0-.4312.3475-.7892.7838-.7892.4364 0 .7839.3499.7839.7892v2.498c0 .3173.2505.5695.5656.5695.3152 0 .5657-.2522.5657-.5695v-2.498c0-.4312.3474-.7892.7838-.7892.4283 0 .7839.3499.7839.7892v2.498c0 .3173.2505.5695.5656.5695.3152 0 .5657-.2522.5657-.5695v-2.498c0-.4312.3474-.7892.7838-.7892.4283 0 .7838.3499.7838.7892V27.581c0 .179-.0484.3499-.1373.5045l-.6465 1.1228c-.0485.0895-.0727.1872-.0727.2848v2.8804c0 .3173.2505.5695.5656.5695.3152 0 .5657-.2522.5657-.5695v-2.7258l.5737-.9927c.1859-.3254.2909-.6997.2909-1.0821V16.6942c-.0161-1.0577-.8727-1.9202-1.9232-1.9202z" fill="#E35555"/><path d="M19.4707 9.48511c.2101.43937.3233.91129.3233 1.40759 0 .7079-.2263 1.3833-.6546 1.9528-.0889.1221-.1293.2685-.1131.4231.0161.1546.097.2848.2182.3743.0969.0732.2181.1139.3474.1139.1778 0 .3394-.0813.4445-.2197.5818-.7648.8889-1.6761.8889-2.6444 0-.6672-.1455-1.30996-.4364-1.90393-.0646-.13832-.1778-.23596-.3232-.28478-.1455-.04882-.299-.04068-.4283.02441-.2909.13019-.404.47192-.2667.75671zM13.2162 13.5698c.105.1383.2666.2197.4444.2197.1293 0 .2505-.0407.3475-.122.1212-.0977.1939-.2279.2101-.3825.0162-.1546-.0242-.301-.1131-.4231-.4445-.5695-.6788-1.253-.6788-1.9772 0-1.7656 1.4303-3.20578 3.1838-3.20578.703 0 1.3738.22782 1.9313.65906.2505.18715.6061.14646.792-.10577.1858-.25224.1454-.61025-.1051-.79739-.7596-.58583-1.6646-.89503-2.6263-.89503-2.3757 0-4.3151 1.94465-4.3151 4.34491.0081.9846.3232 1.9121.9293 2.6851z" fill="#E35555"/><path d="M12.5293 16.6617c.097.0651.2101.1058.3313.1058.1859 0 .3556-.0895.4606-.236.1778-.2522.1213-.6102-.1293-.7974-1.5515-1.1147-2.4808-2.9292-2.4808-4.8494 0-1.92023.9293-3.73469 2.4808-4.8494.2506-.17901.3152-.53702.1293-.79739-.1777-.25224-.5333-.31733-.7919-.13019-1.8505 1.32627-2.95756 3.49061-2.95756 5.77698 0 2.2945 1.10706 4.4507 2.95756 5.777zM20.0283 6.0425c1.5515 1.11471 2.4808 2.92918 2.4808 4.8494 0 .7649-.1454 1.5134-.4202 2.2132-.0565.1383-.0565.2929.0081.4393.0566.1384.1697.2523.3071.3092.0646.0244.1373.0407.2101.0407.2343 0 .4363-.1383.5252-.358.3394-.8381.5091-1.7249.5091-2.6444 0-2.28637-1.1071-4.44257-2.9576-5.77697-.2505-.17901-.606-.12205-.7919.13018-.1858.26037-.1293.61838.1293.79739zM7.22019 8.45192c.10506.11391.25859.179.41213.179.14545 0 .28283-.05695.38788-.15459.11313-.10578.17777-.2441.17777-.3987.00809-.15459-.04848-.29291-.15353-.40683l-.87273-.94384c-.2101-.22783-.57374-.2441-.8-.03255-.11313.10578-.17778.2441-.17778.39869-.00808.1546.04849.30106.15354.40683l.87272.95199zM7.22827 12.26l-.88081.9519c-.10505.114-.15354.2523-.15354.4069.00808.1546.07273.2929.17778.3987.10505.0976.24243.1546.38788.1546.15354 0 .30707-.0651.41212-.179l.88081-.952c.10505-.1139.15354-.2523.15354-.4069-.00808-.1546-.07273-.2929-.17778-.3987-.23434-.2196-.5899-.2034-.8.0245zM7.64041 9.62354H6.56566c-.31515 0-.56566.25223-.56566.56956 0 .3173.25051.5696.56566.5696h1.07475c.31515 0 .56565-.2523.56565-.5696 0-.31733-.25858-.56956-.56565-.56956z" fill="#E35555"/></svg>