<svg width="36" height="36" fill="none" xmlns="http://www.w3.org/2000/svg"><circle cx="18" cy="18" r="18" fill="#fff"/><path d="M34.4709 5.01533H31.365c-.8146 0-1.4845.64387-1.5149 1.46403l-.9516 4.78304h-7.171l.0152-.0537c.5024-1.41802.2817-3.00469-.5786-4.23877C20.2963 5.73585 18.888 5 17.3883 5c-1.4997 0-2.908.73585-3.7758 1.96993-.8678 1.23408-1.081 2.81309-.5786 4.23877l.0153.0537H5.4823c-.14464 0-.28166.0613-.37301.1763-.09135.115-.12942.2606-.09897.3986l2.07062 10.4245c.04567.2223.2436.3909.47198.3909H27.2237c.5938 0 1.0734.4829 1.0734 1.0808s-.4796 1.0808-1.0734 1.0808H7.55292c-.26644 0-.47959.2146-.47959.4829v2.0849c0 .2683.21315.4829.47959.4829h.86021l-.03045.0613c-.3654.6285-.3654 1.418 0 2.0466C8.74809 30.6014 9.41799 31 10.1412 31c.7232 0 1.4007-.3909 1.7585-1.0271.3654-.6362.3578-1.4181 0-2.0466l-.0305-.0613h11.0382l-.0304.0613c-.3654.6285-.3654 1.418 0 2.0466.3654.6285 1.0353 1.0271 1.7585 1.0271.7232 0 1.4007-.3909 1.7585-1.0271.3654-.6362.3578-1.4181 0-2.0466l-.0305-.0613h.8602c.2665 0 .4796-.2146.4796-.4829v-1.6557l.0305-.0076c.8754-.23 1.4996-1.0195 1.5225-1.9317.0228-.9121-.5633-1.7323-1.4312-2.0005l-.0304-.0077 2.7709-13.94281.0457.03066c.2284.13797.4872.20695.7537.20695h3.1059c.8374 0 1.5149-.68219 1.5149-1.52535 0-.85083-.6852-1.53302-1.5149-1.53302zM11.0395 29.5513c-.1142.1763-.2817.3143-.4796.3986-.1371.0536-.2741.0843-.4111.0843-.28167 0-.55572-.1073-.76126-.3143-.30451-.3066-.40347-.7741-.22838-1.1804.16748-.4062.55572-.6669.98964-.6669.5938 0 1.0734.4829 1.0734 1.0808-.0076.2146-.0686.4216-.1827.5979zm14.4866 0c-.1142.1763-.2816.3143-.4796.3986-.137.0536-.274.0843-.411.0843-.2817 0-.5557-.1073-.7613-.3143-.3045-.3066-.4035-.7741-.2284-1.1804.1675-.4062.5558-.6669.9897-.6669.5937 0 1.0733.4829 1.0733 1.0808 0 .2146-.0685.4216-.1827.5979zm1.218-2.6445H8.0325v-1.1191h18.7116v1.1191zM17.3883 5.98113c.746 0 1.4464.22229 2.0326.62087.5861.39859 1.0657.96581 1.3474 1.65567.5709 1.37971.2588 2.95873-.7917 4.01653-.7004.7052-1.6367 1.0808-2.5883 1.0808-.472 0-.9515-.092-1.4007-.2837-1.3702-.5748-2.2609-1.9086-2.2609-3.40326 0-2.03125 1.6443-3.68691 3.6616-3.68691zM6.91346 16.4823l-.84499-4.2465h3.14398l.63184 4.2465H6.91346zm1.03531 5.2123l-.845-4.2465h2.88516l.63187 4.2465H7.94877zm2.23043-9.4588h3.3572l.0152.0154c.236.3526.51.6668.8298.9428l.0152.0077.1599 3.2729h-3.7378l-.6395-4.2388zm1.4084 9.4588l-.6319-4.2465h3.6464l.2132 4.2465h-3.2277zm7.4146 0h-3.2277l-.2132-4.2465h3.6464l-.2055 4.2465zm.2588-5.2123h-3.7454l-.1294-2.6215.0609.0307c1.2333.5826 2.6568.5826 3.89 0l.0609-.0307-.137 2.6215zm3.9281 5.2123h-3.2277l.2131-4.2465h3.6464l-.6318 4.2465zm-2.9689-5.2123l.1599-3.273.0152-.0076c.3197-.276.6014-.5903.8297-.9429l.0153-.0153h3.3571l-.6318 4.2465h-3.7454v-.0077zm6.6077 5.2123h-2.672l.6318-4.2465h2.8852l-.845 4.2465zm1.0353-5.2123h-2.9308l.6318-4.2465h3.144l-.845 4.2465zm6.6077-9.38206H31.365c-.3045 0-.5558-.25295-.5558-.55956 0-.3066.2513-.55955.5558-.55955h3.1059c.3045 0 .5557.25295.5557.55955 0 .30661-.2512.55956-.5557.55956z" fill="#E35555"/><path d="M19.3143 7.73623c-.198-.16864-.5025-.14564-.67.06132l-2.2532 2.72115-.6623-.66691c-.0914-.09198-.2132-.13797-.3426-.13797-.1294 0-.2436.04599-.3426.13797-.1903.19161-.1903.49821 0 .68221l1.0353 1.0424c.0914.092.2132.1457.3426.1457h.0152c.1371-.0077.2589-.069.3502-.1763l2.5883-3.12738c.1674-.20696.137-.51356-.0609-.68219z" fill="#E35555"/></svg>