<svg width="36" height="36" fill="none" xmlns="http://www.w3.org/2000/svg"><circle cx="18" cy="18" r="18" fill="#fff"/><path d="M28.8108 20.2969c-.0901.0413-.1638.1155-.2048.2062l-2.4654 4.9567c-.0738.1485-.254.2227-.4096.1732-.172-.0577-.2703-.2392-.2211-.4206l.7126-2.5155c.0491-.1897-.0164-.3876-.1639-.5031-.1556-.1154-.3604-.1237-.5242-.0165L21.4472 24.8c-.1475.0907-.3195.1155-.4833.0742-.1638-.0494-.3031-.1567-.3768-.3134-.131-.2639-.0573-.5773.1802-.7587l2.9897-2.2598c.172-.132.2375-.3711.1392-.5691-.0901-.1979-.3112-.3051-.5242-.2557l-4.8408 1.1217c-.1884.0412-.3768.0082-.5406-.099-.1638-.1072-.2703-.2721-.3112-.4618-.0738-.3794.172-.7505.5487-.833l5.3487-1.1547c.213-.0494.3686-.2391.3686-.4618 0-.2227-.1638-.4124-.3768-.4536l-3.8497-.7011c-.2048-.0412-.385-.1567-.4997-.3298-.1146-.1732-.1556-.3794-.1146-.5856.0737-.3876.4259-.6598.8191-.6186l4.4476.3712c.172.0165.3522-.0743.4423-.231.0901-.1567.0819-.3546-.0245-.5031l-1.7693-2.4907c-.1802-.2557-.1556-.602.0656-.8247.2375-.2392.6225-.2557.8682-.033l2.9241 2.5732c.1311.1154.3113.1484.4751.0825l4.1937-1.6908c.2376-.0989.3523-.3629.254-.602-.0983-.2392-.3604-.3547-.598-.2557l-3.8661 1.5588c-.0409.0165-.0819.0082-.1146-.0165l-.5816-.5114c-.0164-.0165-.0328-.0412-.0328-.0659l-1.6791-9.02273h-.0082c-.0082-.05773-.0246-.11546-.0655-.17319-.0983-.1567-.2867-.23918-.4751-.20619L8.93148 6.98559c-.12286.02474-.22934.09072-.29487.19794L5.6715 11.5217c-.06552.0989-.09829.2227-.07371.3464l1.27778 6.969c.01638.0825-.06553.1567-.14744.1237l-2.08049-.8412c-.23753-.099-.50783.0248-.59793.2557-.09829.2392.01638.5113.25392.602l4.19373 1.6908c.16382.0659.34402.033.47508-.0825l2.92416-2.5732c.2539-.2227.6307-.2062.8682.033.2212.2227.2539.5691.0655.8247l-1.7692 2.499c-.1065.1484-.1147.3464-.0246.5031s.2622.2557.4424.2309l4.4476-.3711c.3932-.033.7454.2392.8191.6185.041.2062 0 .4124-.1147.5856-.1147.1732-.2948.2887-.4996.3299l-3.8497.701c-.2212.0413-.3768.231-.3768.4536 0 .2227.1474.4124.3686.4619l5.3486 1.1546c.3768.0825.6225.4536.5488.833-.0409.1897-.1474.3547-.3112.4619-.1639.1072-.3523.1402-.5406.099l-4.8327-1.1217c-.2129-.0495-.4341.0577-.5242.2557-.0901.1979-.0328.4371.1393.569l2.9896 2.2598c.2294.1732.3113.4949.1802.7588-.0737.1567-.2129.2639-.3767.3134-.1639.0495-.3359.0247-.4833-.0742l-4.0873-2.6227c-.172-.1072-.40132-.0907-.55695.0495-.15563.1402-.19658.3629-.10648.5526l.92553 1.8639c.1393.2804.0246.6268-.2539.7752-.1392.066-.2867.0825-.43409.033-.14744-.0495-.26211-.1484-.32764-.2886l-2.3344-4.6598c-.04096-.0908-.11468-.165-.20478-.2062l-2.35897-1.1959c-.22935-.1155-.50784-.0247-.62251.2062-.11468.2309-.02458.5113.20477.6268l2.18697 1.1051c.02457.0083.04095.0248.04914.0495l2.22793 4.4866c.1802.3629.48326.6268.86823.7588.15563.0495.31945.0742.47505.0742.2294 0 .4587-.0577.6717-.1567.7372-.3711 1.0402-1.2783.6716-2.0206-.0491-.099.0656-.2062.1557-.1402l2.3426 1.501c.3685.231.8109.2969 1.2286.1815.4177-.1155.7617-.4042.9583-.7918.3277-.668.1393-1.468-.4505-1.9134l-.8191-.6185c-.0983-.0743-.0245-.2227.0901-.198l2.1952.5114c.6143.1402 1.245-.0743 1.6709-.6021l.0082-.0082c.6143-.8908.2703-1.9464-.4996-2.4-.0901-.0495-.0655-.1897.0327-.2062.4096-.0743 1.0649-.198 1.3024-.2392.0491-.0083.0983.0165.1229.066.0082.0082.0082.0247.0163.033.1966.3876.5406.6762.9584.7917.4177.1155.86.0495 1.2286-.1814l2.8177-1.8062c.0819-.0577.1966.0247.1638.1237l-.3031 1.0557c-.1884.6598.172 1.3443.8191 1.5587.1311.0413.2621.066.3932.066.4669 0 .9174-.2639 1.1303-.701l2.3754-4.7918c.0082-.0247.0246-.0412.0491-.0495l2.187-1.1051c.2294-.1155.3195-.3959.2048-.6268-.1147-.2309-.3932-.3217-.6225-.2062l-2.3508 1.1711zM21.1933 8.49487l-4.3167.80824c-.0982.0165-.1638-.09072-.1146-.17319l2.0477-2.99382c.0164-.02474.041-.04123.0737-.04948L23.2 5.27837c.0983-.01649.1638.09072.1147.1732L21.267 8.44538c-.0164.02475-.0492.04124-.0737.04949zm-8.0681 1.30309l2.0477-2.99381c.0164-.02475.041-.04124.0738-.04949l2.0477-.37938c.0983-.01649.1638.09072.1147.1732l-2.0478 2.99381c-.0163.02474-.0409.04124-.0737.04948l-2.0477.37939c-.0983.02474-.1638-.09073-.1147-.1732zm2.1215.85774l.8846 4.8165c.0082.0577-.0246.1155-.0901.1319l-2.5064.4701c-.0574.0083-.1147-.0247-.1311-.0907l-.8846-4.8165c-.0082-.0577.0246-.1154.0901-.1319l2.5146-.4701c.0573-.0083.1147.033.1229.0907zM9.33284 7.85982l4.31656-.80825c.0983-.0165.1639.09072.1147.17319l-2.0477 2.99384c-.0164.0247-.041.0412-.0737.0495l-4.31663.8082c-.09829.0165-.16382-.0907-.11468-.1732l2.04773-2.9938c.02457-.02474.04914-.04124.07372-.04948zm1.95766 9.45978l-2.65389 2.3423c-.03276.0247-.07372.033-.11467.0165l-.53241-.2145c-.03276-.0165-.05734-.0494-.06553-.0824l-1.31054-7.1176c-.00819-.0577.02457-.1154.0901-.1319l4.78344-.8907c.0574-.0083.1147.0247.1311.0907l.9911 5.3855c.0082.0248.0164.0578.0246.0825.0327.0742-.0328.1567-.1147.1485-.4341-.0495-.8764.066-1.2286.3711zm4.5705 3.4887l-3.219.2721c-.0901.0083-.1557-.0989-.0983-.1732l1.0484-1.4845c.4423-.6268.3768-1.4845-.1638-2.0289-.1311-.1319-.2785-.2309-.4341-.3051.0245 0 .0409.0082.0655.0082.0246 0 .0573 0 .0819-.0082l3.6368-.6763c.1228-.0247.2293-.0907.2948-.1979.0656-.099.0983-.231.0738-.3464l-.9911-5.3856c-.0082-.0577.0245-.1155.0901-.132l4.7834-.89068c.0574-.00825.1147.02474.1311.09072l.1638.89076c.0082.0577.0655.0989.1311.0907l.6962-.132c.0573-.0082.0983-.066.0901-.1319l-.2212-1.22066c-.0082-.03298 0-.05773.0164-.08247l2.0477-2.99381c.0574-.08248.1802-.05774.1966.04123l1.1467 6.21851c.0164.1073-.0982.1732-.1802.1073l-.688-.6021c-.6143-.5443-1.5563-.5113-2.1378.0742-.5406.5444-.6143 1.4021-.1638 2.0289l1.0484 1.4845c.0573.0743-.0082.1815-.0983.1732l-3.219-.2721c-1.0812-.0908-2.015.8494-1.8102 2.0536v.0165c.1802.7092.7044 1.1958 1.3597 1.3196l1.0075.1814c.1228.0247.1228.1897 0 .2144l-2.5146.5444c-.6553.1402-1.1304.668-1.2532 1.2948-.0164.066-.082.1072-.1475.0825-.2375-.1072-.4996-.1485-.7699-.1237zm3.776 3.1257l-3.9562.7341h-.041l-.344-.0743c-.1147-.0247-.1147-.1979 0-.2144l1.0075-.1814c.4505-.0825.8437-.3382 1.0976-.7176.1392-.2062.2293-.4453.2621-.6845.0082-.066.0819-.1072.1474-.0825.2949.1072.6061.132.9174.0578l2.1952-.5114c.1146-.0247.1883.1237.0901.198l-.8191.6185c-.2867.2062-.4751.5196-.557.8577zM9.61953 4.92371c.25391 0 .45867-.20618.45867-.46185C10.0782 4.20619 9.87344 4 9.61953 4 8.0223 4 6.68719 5.17113 6.43327 6.70515c-.04915.28866.16382.55258.45869.55258.22934 0 .41773-.16495.45869-.39587.1802-1.10516 1.13034-1.93815 2.26888-1.93815zM26.7057 31.4228c0 .2557.2048.4619.4587.4619 1.5972 0 2.9324-1.1712 3.1863-2.7052.0491-.2886-.1638-.5525-.4587-.5525-.2294 0-.4177.1649-.4587.3958-.1884 1.0969-1.1385 1.9382-2.2771 1.9382-.2457-.0083-.4505.2062-.4505.4618zM25.7802 29.5586c-.254 0-.4587.2062-.4587.4619s.2047.4618.4587.4618c1.5972 0 2.9323-1.1711 3.1862-2.7051.0492-.2887-.1638-.5526-.4587-.5526-.2293 0-.4177.165-.4587.3959-.1802 1.0969-1.1303 1.9381-2.2688 1.9381z" fill="#E35555"/></svg>