<svg width="36" height="36" fill="none" xmlns="http://www.w3.org/2000/svg"><circle cx="18" cy="18" r="18" fill="#fff"/><path d="M30.6718 12.4043c-.0566-.1384-.1698-.2442-.3072-.3012-.1375-.057-.2911-.0489-.4286.0081-.1374.057-.2425.171-.291.3094-.0566.1384-.0485.2931.0081.4315 2.4579 5.6743.5498 12.3174-4.5278 15.8018-4.6813 3.2157-10.8585 2.9145-15.20833-.578h1.15623c.3638 0 .5578-.2849.5578-.5617s-.194-.5618-.5578-.5618H8.51823c-.04851 0-.09703 0-.13746.0082-.23447.0407-.42043.2279-.46085.464 0 .0081 0 .0163-.00809.0244 0 .0326-.00808.0652 0 .0977v2.5807c0 .3094.25064.5618.55788.5618.30724 0 .55788-.2524.55788-.5618v-1.3595c2.47411 2.0678 5.63541 3.232 8.86141 3.232h.0324c4.7056 0 9.0555-2.3691 11.6346-6.3256 2.5792-3.9647 2.9997-8.9226 1.1158-13.27zM8.86589 8.89561c2.41751-2.43419 5.63541-3.77746 9.05551-3.77746 2.943 0 5.7325.99321 7.9963 2.82495h-1.1562c-.3638 0-.5578.28494-.5578.56174 0 .27679.194.56173.5578.56173h2.555c.0485 0 .097 0 .1455-.00814.2345-.04071.4205-.22795.4528-.46404v-.02442-.00815c0-.03256.0081-.06512 0-.09769V5.87527c0-.36635-.283-.56174-.5579-.56174s-.5579.19539-.5579.56174v1.35956c-2.086-1.74219-4.6571-2.84938-7.3656-3.1506-3.1291-.35007-6.3227.39891-8.9828 2.1004C7.79055 7.88611 5.76114 10.475 4.7424 13.479c-1.01874 3.0041-.9864 6.3012.08085 9.289.08086.2198.29107.3664.52555.3664.17787 0 .34766-.0896.45277-.2361.10511-.1466.12937-.342.06468-.5129-1.64939-4.673-.47703-9.9728 2.99964-13.48979z" fill="#E35555"/><path d="M26.1765 16.0759H22.627v-3.5821c0-.2768-.2264-.5047-.5013-.5047h-2.1021v-.5455c0-1.71773-1.3988-3.10986-3.1209-3.10986-1.7222 0-3.121 1.39213-3.121 3.10986v.5455h-2.1021c-.2749 0-.5013.2279-.5013.5047v11.2266c0 1.3026 1.0592 2.3609 2.369 2.3609h10.7696c1.3017 0 2.3689-1.0583 2.3689-2.3609v-7.1397c-.008-.2768-.2263-.5048-.5093-.5048zm-.4932 1.0095v6.6431c0 .749-.6145 1.3514-1.3664 1.3514h-4.358c-.7519 0-1.3664-.6105-1.3664-1.3514v-6.6431h7.0908zM14.283 15.5223c.2749 0 .5013-.2279.5013-.5047v-2.019h4.2529v2.019c0 .2768.2264.5047.5013.5047s.5013-.2279.5013-.5047v-2.019h1.6008v3.0773h-3.5494c-.2749 0-.5013.228-.5013.5048v7.1397c0 .4885.1536.9606.4285 1.3514h-4.4711c-.752 0-1.3664-.6106-1.3664-1.3514V12.9986h1.6008v2.019c0 .2768.2264.5047.5013.5047zm.5013-3.5251v-.5454c0-1.1642.9541-2.10857 2.1264-2.10857 1.1724 0 2.1265.94437 2.1265 2.10857v.5454h-4.2529z" fill="#E35555"/><path d="M22.1338 21.3431c1.2856 0 2.3286-1.0502 2.3286-2.3446v-.9281c0-.2768-.2264-.5047-.5013-.5047s-.5013.2279-.5013.5047v.9281c0 .7408-.5983 1.3433-1.3341 1.3433-.7357 0-1.334-.6025-1.334-1.3433v-.9281c0-.2768-.2264-.5047-.5013-.5047s-.5013.2279-.5013.5047v.9281c.0162 1.2944 1.0592 2.3446 2.3447 2.3446z" fill="#E35555"/></svg>