<svg width="9" height="14" fill="none" xmlns="http://www.w3.org/2000/svg"><path d="M.00064993 5.13043C.134995 8.2491 1.23214 11.2084 3.13536 13.6669c.2463.3187.7389.387 1.09715.296.40303-.1138.64933-.4098.78368-.7968C6.33724 9.25072 7.63591 5.35807 8.95697 1.44266 9.13609.873561 8.73306.167876 8.17329.0312916 7.54635-.105293 7.00897.213404 6.78506.828032 5.464 4.74344 4.16534 8.63609 2.84428 12.5515c.62694-.1593 1.25389-.3415 1.88083-.5008-.20152-.2504.13434.1821-.06718-.0683l-.13434-.2049c-.08956-.1366-.17913-.2731-.26869-.387-.17913-.2731-.35825-.5691-.51499-.865-.15673-.2959-.31347-.59186-.44781-.91055-.02239-.0683-.06718-.13659-.08957-.22764-.08956-.20488.02239.09105-.02239-.04553-.06717-.15935-.13434-.3187-.17912-.50081-.22391-.61463-.40304-1.25202-.53738-1.88941-.04478-.18212-.06718-.34146-.08957-.52358-.02239-.06829-.02239-.15935-.04478-.22764-.02239-.13658.02239.18211 0-.02276-.04478-.34146-.06717-.70569-.08956-1.04715-.02239-.59186-.4926-1.16096-1.11954-1.1382-.582161.02277-1.1419309.50081-1.11954007 1.1382z" fill="#9BDDD3"/></svg>